<?xml version="1.0" encoding="UTF-8"?>
<!DOCTYPE svg PUBLIC "-//W3C//DTD SVG 1.1//EN" "http://www.w3.org/Graphics/SVG/1.1/DTD/svg11.dtd">
<svg xmlns="http://www.w3.org/2000/svg" version="1.1" width="1600px" height="350px" style="shape-rendering:geometricPrecision; text-rendering:geometricPrecision; image-rendering:optimizeQuality; fill-rule:evenodd; clip-rule:evenodd" xmlns:xlink="http://www.w3.org/1999/xlink">
<g><path style="opacity:1" fill="#000000" d="M -0.5,-0.5 C 532.833,-0.5 1066.17,-0.5 1599.5,-0.5C 1599.5,116.167 1599.5,232.833 1599.5,349.5C 1066.17,349.5 532.833,349.5 -0.5,349.5C -0.5,232.833 -0.5,116.167 -0.5,-0.5 Z"/></g>
<g><path style="opacity:1" fill="#232f46" d="M 861.5,9.5 C 886.294,8.45526 896.794,20.1219 893,44.5C 887.287,57.1119 877.453,62.6119 863.5,61C 853.444,58.2712 846.61,52.1046 843,42.5C 840.408,26.3316 846.575,15.3316 861.5,9.5 Z"/></g>
<g><path style="opacity:1" fill="#5abe82" d="M 889.5,112.5 C 890.167,115.5 890.833,118.5 891.5,121.5C 892.512,132.148 892.679,142.814 892,153.5C 889.014,160.505 886.847,167.838 885.5,175.5C 881.993,177.461 880.66,180.461 881.5,184.5C 878.833,184.5 876.167,184.5 873.5,184.5C 873.759,187.565 872.759,190.065 870.5,192C 872.155,193.444 872.822,195.278 872.5,197.5C 871.351,199.149 870.018,200.649 868.5,202C 870.645,205.478 873.478,208.311 877,210.5C 878.094,212.078 878.928,213.745 879.5,215.5C 879.343,216.873 879.51,218.207 880,219.5C 882.46,225.083 885.46,230.416 889,235.5C 889.7,240.409 891.034,245.075 893,249.5C 893.5,256.826 893.666,264.159 893.5,271.5C 893.5,273.167 893.5,274.833 893.5,276.5C 892.055,279.937 891.055,283.603 890.5,287.5C 880.683,315.977 861.016,333.644 831.5,340.5C 820.828,340.667 810.161,340.5 799.5,340C 794.769,337.971 789.769,337.137 784.5,337.5C 783.17,336.168 781.503,335.335 779.5,335C 784.702,329.63 790.035,324.464 795.5,319.5C 802.807,316.37 808.474,311.203 812.5,304C 818.854,302.964 825.187,301.798 831.5,300.5C 832.772,300.57 833.938,300.903 835,301.5C 836.193,296.306 839.36,293.14 844.5,292C 844.167,291.667 843.833,291.333 843.5,291C 845.955,289.058 847.288,286.558 847.5,283.5C 849.891,284.408 852.224,284.574 854.5,284C 853.833,285 853.167,286 852.5,287C 856.152,287.499 859.818,287.665 863.5,287.5C 863.5,285.167 863.5,282.833 863.5,280.5C 862.178,280.33 861.011,280.663 860,281.5C 858.724,287.938 857.057,287.938 855,281.5C 854.667,281.833 854.333,282.167 854,282.5C 854.041,272.168 854.041,261.835 854,251.5C 853.459,248.385 851.959,246.052 849.5,244.5C 845.89,237.889 840.89,232.555 834.5,228.5C 832.967,226.755 830.967,225.755 828.5,225.5C 824.339,223.937 820.005,223.271 815.5,223.5C 815.5,222.5 815.5,221.5 815.5,220.5C 808.833,220.5 802.167,220.5 795.5,220.5C 770.192,214.186 752.192,199.186 741.5,175.5C 741.633,170.027 740.966,164.693 739.5,159.5C 738.5,159.5 737.5,159.5 736.5,159.5C 729.899,128.428 738.233,101.928 761.5,80C 793.855,55.516 827.188,54.1827 861.5,76C 874.086,85.6734 883.42,97.8401 889.5,112.5 Z"/></g>
<g><path style="opacity:1" fill="#242f45" d="M 68.5,62.5 C 99.4915,59.5343 123.991,70.5343 142,95.5C 142.781,96.9437 142.614,98.277 141.5,99.5C 132.5,107.833 123.833,116.5 115.5,125.5C 104.978,103.877 88.3114,96.7107 65.5,104C 53.493,111.176 46.3264,121.676 44,135.5C 41.1556,158.281 50.3223,173.781 71.5,182C 77.5,182.667 83.5,182.667 89.5,182C 94.4143,180.21 99.081,177.876 103.5,175C 108.141,170.871 112.141,166.371 115.5,161.5C 124.279,170.29 133.113,178.957 142,187.5C 130.697,205.611 114.197,216.444 92.5,220C 70.6687,222.959 51.002,217.959 33.5,205C 4.21978,177.512 -2.78022,145.012 12.5,107.5C 17.209,98.0795 23.3756,89.7462 31,82.5C 31.4828,81.552 31.6495,80.552 31.5,79.5C 32.552,79.6495 33.552,79.4828 34.5,79C 44.71,71.0609 56.0433,65.5609 68.5,62.5 Z"/></g>
<g><path style="opacity:1" fill="#242f45" d="M 243.5,62.5 C 287.099,59.9125 316.265,78.9125 331,119.5C 331.667,124.833 332.333,130.167 333,135.5C 333.5,163.165 333.667,190.831 333.5,218.5C 321.5,218.5 309.5,218.5 297.5,218.5C 297.827,213.456 297.494,208.456 296.5,203.5C 261.913,226.018 229.746,223.018 200,194.5C 176.485,166.213 172.485,135.213 188,101.5C 201.317,80.8483 219.817,67.8483 243.5,62.5 Z"/></g>
<g><path style="opacity:1" fill="#233045" d="M 495.5,91.5 C 499.572,102.409 503.405,113.409 507,124.5C 507.5,155.498 507.667,186.498 507.5,217.5C 505.409,217.682 503.409,217.348 501.5,216.5C 500.261,216.942 499.261,217.609 498.5,218.5C 497.5,218.5 496.5,218.5 495.5,218.5C 488.546,216.855 481.213,215.855 473.5,215.5C 472.024,213.58 471.024,211.413 470.5,209C 471.768,178.734 471.768,148.567 470.5,118.5C 470.887,117.28 471.72,116.613 473,116.5C 475.257,117.09 476.924,118.423 478,120.5C 479.392,117.722 479.892,114.722 479.5,111.5C 476.167,111.5 472.833,111.5 469.5,111.5C 469.688,113.103 469.188,114.437 468,115.5C 467.667,114.833 467.333,114.167 467,113.5C 466.29,114.973 465.124,115.64 463.5,115.5C 452.685,102.406 439.352,99.2397 423.5,106C 415.947,111.386 410.947,118.553 408.5,127.5C 406.509,153.812 405.842,180.479 406.5,207.5C 405.448,207.351 404.448,207.517 403.5,208C 405.536,210.5 405.87,213.167 404.5,216C 401,216.167 397.5,216.333 394,216.5C 390.069,216.456 386.402,215.789 383,214.5C 379.422,216.766 375.588,217.1 371.5,215.5C 370.146,212.933 370.48,210.599 372.5,208.5C 371.38,176.155 371.38,143.822 372.5,111.5C 373.822,111.67 374.989,111.337 376,110.5C 379.901,103.61 382.401,96.6095 383.5,89.5C 396.658,71.67 414.491,62.67 437,62.5C 461.533,62.1997 481.033,71.8663 495.5,91.5 Z"/></g>
<g><path style="opacity:1" fill="#242f45" d="M 610.5,62.5 C 649.601,60.6241 677.435,77.2908 694,112.5C 695.843,118.383 697.177,124.383 698,130.5C 698.5,159.831 698.667,189.165 698.5,218.5C 686.829,218.667 675.162,218.5 663.5,218C 662.533,213.599 662.2,209.099 662.5,204.5C 654.927,207.949 647.26,211.449 639.5,215C 609.444,222.661 584.111,215.161 563.5,192.5C 543.148,167.525 538.815,140.025 550.5,110C 551.127,107.865 551.627,105.698 552,103.5C 553.999,101.507 555.499,99.1732 556.5,96.5C 557.325,95.6143 558.325,95.281 559.5,95.5C 559.343,94.1266 559.51,92.7932 560,91.5C 563.833,87.6667 567.667,83.8333 571.5,80C 572.793,79.51 574.127,79.3433 575.5,79.5C 575.281,78.325 575.614,77.325 576.5,76.5C 586.77,69.0249 598.103,64.3582 610.5,62.5 Z"/></g>
<g><path style="opacity:1" fill="#233046" d="M 987.5,63.5 C 1000.5,63.5 1013.5,63.5 1026.5,63.5C 1026.5,74.1667 1026.5,84.8333 1026.5,95.5C 1027.83,95.5 1029.17,95.5 1030.5,95.5C 1030.5,84.8333 1030.5,74.1667 1030.5,63.5C 1031.83,63.5 1033.17,63.5 1034.5,63.5C 1034.67,74.8382 1034.5,86.1716 1034,97.5C 1033.5,98 1033,98.5 1032.5,99C 1021.52,98.8471 1010.52,98.5138 999.5,98C 1002.23,97.8184 1004.89,97.3184 1007.5,96.5C 1001.17,95.1667 994.833,95.1667 988.5,96.5C 987.902,97.7946 987.402,99.1279 987,100.5C 982.416,102.497 979.582,105.83 978.5,110.5C 976.356,112.133 974.689,114.133 973.5,116.5C 972.657,114.827 971.324,113.66 969.5,113C 969.833,112.667 970.167,112.333 970.5,112C 964.363,110.623 963.029,112.456 966.5,117.5C 967.363,148.869 967.863,180.202 968,211.5C 967.167,213 966,214.167 964.5,215C 957.303,215.979 950.136,216.812 943,217.5C 941.302,216.471 940.468,214.971 940.5,213C 941.725,179.178 941.725,145.345 940.5,111.5C 938.712,111.215 937.045,111.548 935.5,112.5C 936.329,116.456 936.995,120.456 937.5,124.5C 936.335,154.204 936.168,183.871 937,213.5C 935.54,215.422 933.873,216.089 932,215.5C 931.832,185.997 931.332,156.664 930.5,127.5C 931.671,102.986 942.338,83.8192 962.5,70C 970.491,66.4192 978.824,64.2526 987.5,63.5 Z"/></g>
<g><path style="opacity:1" fill="#232f45" d="M 1135.5,62.5 C 1158.15,59.0287 1178.15,64.5287 1195.5,79C 1196.79,79.49 1198.13,79.6567 1199.5,79.5C 1200.63,83.3129 1202.96,86.3129 1206.5,88.5C 1225.81,114.665 1229.65,142.999 1218,173.5C 1200.34,210.084 1171.17,225.251 1130.5,219C 1098.26,209.096 1079.09,187.596 1073,154.5C 1068.54,112.555 1085.38,83.0551 1123.5,66C 1127.53,64.5092 1131.53,63.3425 1135.5,62.5 Z"/></g>
<g><path style="opacity:1" fill="#242f45" d="M 1359.5,122.5 C 1378.47,125.741 1391.3,136.407 1398,154.5C 1400.68,167.223 1399.52,179.556 1394.5,191.5C 1393.5,191.5 1392.5,191.5 1391.5,191.5C 1390.37,197.903 1387.03,203.069 1381.5,207C 1375.15,212.396 1367.82,215.562 1359.5,216.5C 1326.86,216.702 1294.19,216.369 1261.5,215.5C 1260.42,212.874 1260.75,210.374 1262.5,208C 1261.86,205.254 1261.52,202.421 1261.5,199.5C 1261.6,196.3 1262.27,193.3 1263.5,190.5C 1295.5,189.756 1327.5,189.089 1359.5,188.5C 1359.5,186.833 1359.5,185.167 1359.5,183.5C 1327.51,184.439 1295.51,184.773 1263.5,184.5C 1263.38,189.448 1262.38,189.448 1260.5,184.5C 1260.73,182.603 1261.73,181.27 1263.5,180.5C 1292.33,179.833 1321,179.167 1349.5,178.5C 1357.96,176.715 1360.96,171.715 1358.5,163.5C 1357.21,162.902 1355.87,162.402 1354.5,162C 1336.17,161.667 1317.83,161.333 1299.5,161C 1283.57,157.07 1271.74,147.903 1264,133.5C 1254.13,108.147 1259.63,86.9808 1280.5,70C 1285.05,66.7224 1290.05,64.5558 1295.5,63.5C 1323.51,62.2034 1351.51,62.2034 1379.5,63.5C 1380.17,106.167 1380.83,106.167 1381.5,63.5C 1383.5,63.5 1385.5,63.5 1387.5,63.5C 1387.73,75.8592 1387.39,88.1926 1386.5,100.5C 1358.85,99.3856 1331.18,99.2189 1303.5,100C 1300.64,101.691 1299.31,104.191 1299.5,107.5C 1298.17,107.5 1296.83,107.5 1295.5,107.5C 1295.89,113.263 1297.89,118.429 1301.5,123C 1320.8,122.564 1340.13,122.397 1359.5,122.5 Z"/></g>
<g><path style="opacity:1" fill="#242f45" d="M 1499.5,62.5 C 1536.08,59.9551 1563.25,74.6218 1581,106.5C 1583.19,112.058 1585.19,117.725 1587,123.5C 1588.4,155.145 1588.9,186.812 1588.5,218.5C 1576.5,218.5 1564.5,218.5 1552.5,218.5C 1552.67,213.489 1552.5,208.489 1552,203.5C 1518.37,225.065 1486.54,222.732 1456.5,196.5C 1432.69,169.903 1427.36,139.903 1440.5,106.5C 1453.08,82.3715 1472.75,67.7048 1499.5,62.5 Z"/></g>
<g><path style="opacity:1" fill="#263040" d="M 987.5,63.5 C 1003.66,62.5036 1019.99,62.1702 1036.5,62.5C 1036.5,75.5 1036.5,88.5 1036.5,101.5C 1022.16,101.333 1007.83,101.5 993.5,102C 987.536,103.31 982.536,106.144 978.5,110.5C 979.582,105.83 982.416,102.497 987,100.5C 987.402,99.1279 987.902,97.7946 988.5,96.5C 994.833,95.1667 1001.17,95.1667 1007.5,96.5C 1004.89,97.3184 1002.23,97.8184 999.5,98C 1010.52,98.5138 1021.52,98.8471 1032.5,99C 1033,98.5 1033.5,98 1034,97.5C 1034.5,86.1716 1034.67,74.8382 1034.5,63.5C 1033.17,63.5 1031.83,63.5 1030.5,63.5C 1030.5,74.1667 1030.5,84.8333 1030.5,95.5C 1029.17,95.5 1027.83,95.5 1026.5,95.5C 1026.5,84.8333 1026.5,74.1667 1026.5,63.5C 1013.5,63.5 1000.5,63.5 987.5,63.5 Z"/></g>
<g><path style="opacity:1" fill="#000001" d="M 247.5,101.5 C 267.78,99.7188 282.613,107.719 292,125.5C 295.561,137.029 295.061,148.362 290.5,159.5C 289.5,159.5 288.5,159.5 287.5,159.5C 284.018,168.139 277.685,173.972 268.5,177C 242.98,182.802 226.147,173.302 218,148.5C 215.429,124.928 225.262,109.262 247.5,101.5 Z"/></g>
<g><path style="opacity:1" fill="#000001" d="M 612.5,101.5 C 635.383,99.6761 650.883,109.343 659,130.5C 662.34,153.778 653.173,169.611 631.5,178C 608.495,182.08 592.662,173.246 584,151.5C 579.39,126.644 588.89,109.978 612.5,101.5 Z"/></g>
<g><path style="opacity:1" fill="#000001" d="M 1139.5,101.5 C 1168.75,99.7593 1184.09,113.426 1185.5,142.5C 1184.95,162.238 1175.28,175.404 1156.5,182C 1133.03,184.352 1118.19,174.186 1112,151.5C 1111.33,144.167 1111.33,136.833 1112,129.5C 1113.39,124.325 1115.72,119.658 1119,115.5C 1119.49,114.207 1119.66,112.873 1119.5,111.5C 1125.93,107.62 1132.59,104.287 1139.5,101.5 Z"/></g>
<g><path style="opacity:1" fill="#000002" d="M 1503.5,101.5 C 1526.41,99.8637 1541.57,109.864 1549,131.5C 1551.64,150.099 1545.14,164.432 1529.5,174.5C 1508.33,183.884 1490.99,179.217 1477.5,160.5C 1468.85,142.552 1471.18,126.386 1484.5,112C 1485.45,111.517 1486.45,111.351 1487.5,111.5C 1488.54,108.615 1490.54,106.448 1493.5,105C 1496.98,103.897 1500.31,102.731 1503.5,101.5 Z"/></g>
<g><path style="opacity:1" fill="#010201" d="M 820.5,103.5 C 834.732,106.274 844.732,114.274 850.5,127.5C 851.952,131.902 852.952,136.402 853.5,141C 853.143,145.23 852.477,149.396 851.5,153.5C 843.156,174.141 827.823,182.974 805.5,180C 786.377,173.861 776.377,160.694 775.5,140.5C 776.209,125.399 783.209,114.399 796.5,107.5C 804.326,105.663 812.326,104.329 820.5,103.5 Z"/></g>
<g><path style="opacity:1" fill="#0b1e0f" d="M 820.5,103.5 C 812.326,104.329 804.326,105.663 796.5,107.5C 799.598,104.957 803.265,103.457 807.5,103C 812.02,102.186 816.354,102.353 820.5,103.5 Z"/></g>
<g><path style="opacity:1" fill="#233041" d="M 973.5,116.5 C 972.303,120.095 971.303,123.761 970.5,127.5C 970.151,157.886 969.151,188.219 967.5,218.5C 955.167,218.5 942.833,218.5 930.5,218.5C 930.5,188.167 930.5,157.833 930.5,127.5C 931.332,156.664 931.832,185.997 932,215.5C 933.873,216.089 935.54,215.422 937,213.5C 936.168,183.871 936.335,154.204 937.5,124.5C 936.995,120.456 936.329,116.456 935.5,112.5C 937.045,111.548 938.712,111.215 940.5,111.5C 941.725,145.345 941.725,179.178 940.5,213C 940.468,214.971 941.302,216.471 943,217.5C 950.136,216.812 957.303,215.979 964.5,215C 966,214.167 967.167,213 968,211.5C 967.863,180.202 967.363,148.869 966.5,117.5C 963.029,112.456 964.363,110.623 970.5,112C 970.167,112.333 969.833,112.667 969.5,113C 971.324,113.66 972.657,114.827 973.5,116.5 Z"/></g>
<g><path style="opacity:1" fill="#222b3a" d="M 1359.5,122.5 C 1340.13,122.397 1320.8,122.564 1301.5,123C 1297.89,118.429 1295.89,113.263 1295.5,107.5C 1296.83,107.5 1298.17,107.5 1299.5,107.5C 1299.31,104.191 1300.64,101.691 1303.5,100C 1331.18,99.2189 1358.85,99.3856 1386.5,100.5C 1387.39,88.1926 1387.73,75.8592 1387.5,63.5C 1385.5,63.5 1383.5,63.5 1381.5,63.5C 1380.83,106.167 1380.17,106.167 1379.5,63.5C 1351.51,62.2034 1323.51,62.2034 1295.5,63.5C 1296.26,62.7321 1297.26,62.2321 1298.5,62C 1328.83,61.5 1359.16,61.3334 1389.5,61.5C 1389.82,74.7461 1389.49,87.9128 1388.5,101C 1361.17,101.333 1333.83,101.667 1306.5,102C 1304.07,102.295 1302.24,103.462 1301,105.5C 1297.93,112.116 1299.43,117.283 1305.5,121C 1323.67,121.168 1341.67,121.668 1359.5,122.5 Z"/></g>
<g><path style="opacity:1" fill="#183422" d="M 889.5,112.5 C 891.855,114.923 892.855,117.923 892.5,121.5C 892.167,121.5 891.833,121.5 891.5,121.5C 890.833,118.5 890.167,115.5 889.5,112.5 Z"/></g>
<g><path style="opacity:1" fill="#252f3f" d="M 495.5,218.5 C 486.5,218.5 477.5,218.5 468.5,218.5C 468.667,188.165 468.5,157.832 468,127.5C 466.771,123.379 465.271,119.379 463.5,115.5C 465.124,115.64 466.29,114.973 467,113.5C 467.333,114.167 467.667,114.833 468,115.5C 469.188,114.437 469.688,113.103 469.5,111.5C 472.833,111.5 476.167,111.5 479.5,111.5C 479.892,114.722 479.392,117.722 478,120.5C 476.924,118.423 475.257,117.09 473,116.5C 471.72,116.613 470.887,117.28 470.5,118.5C 471.768,148.567 471.768,178.734 470.5,209C 471.024,211.413 472.024,213.58 473.5,215.5C 481.213,215.855 488.546,216.855 495.5,218.5 Z"/></g>
<g><path style="opacity:1" fill="#202835" d="M 495.5,91.5 C 502.469,100.547 506.636,110.881 508,122.5C 508.5,154.498 508.667,186.498 508.5,218.5C 505.167,218.5 501.833,218.5 498.5,218.5C 499.261,217.609 500.261,216.942 501.5,216.5C 503.409,217.348 505.409,217.682 507.5,217.5C 507.667,186.498 507.5,155.498 507,124.5C 503.405,113.409 499.572,102.409 495.5,91.5 Z"/></g>
<g><path style="opacity:1" fill="#5ea37a" d="M 850.5,127.5 C 851.5,127.5 852.5,127.5 853.5,127.5C 854.574,135.798 854.74,144.132 854,152.5C 853.329,153.252 852.496,153.586 851.5,153.5C 852.477,149.396 853.143,145.23 853.5,141C 852.952,136.402 851.952,131.902 850.5,127.5 Z"/></g>
<g><path style="opacity:1" fill="#101621" d="M 970.5,127.5 C 970.5,157.833 970.5,188.167 970.5,218.5C 969.5,218.5 968.5,218.5 967.5,218.5C 969.151,188.219 970.151,157.886 970.5,127.5 Z"/></g>
<g><path style="opacity:1" fill="#242e3e" d="M 383.5,89.5 C 382.401,96.6095 379.901,103.61 376,110.5C 374.989,111.337 373.822,111.67 372.5,111.5C 371.38,143.822 371.38,176.155 372.5,208.5C 370.48,210.599 370.146,212.933 371.5,215.5C 375.588,217.1 379.422,216.766 383,214.5C 386.402,215.789 390.069,216.456 394,216.5C 397.5,216.333 401,216.167 404.5,216C 405.87,213.167 405.536,210.5 403.5,208C 404.448,207.517 405.448,207.351 406.5,207.5C 405.842,180.479 406.509,153.812 408.5,127.5C 408.5,157.833 408.5,188.167 408.5,218.5C 395.167,218.5 381.833,218.5 368.5,218.5C 368.333,188.165 368.5,157.832 369,127.5C 369.261,112.854 374.095,100.188 383.5,89.5 Z"/></g>
<g><path style="opacity:1" fill="#60ac80" d="M 736.5,159.5 C 737.5,159.5 738.5,159.5 739.5,159.5C 740.966,164.693 741.633,170.027 741.5,175.5C 738.654,170.624 736.987,165.291 736.5,159.5 Z"/></g>
<g><path style="opacity:1" fill="#0c1c10" d="M 893.5,156.5 C 894.408,163.737 892.741,170.071 888.5,175.5C 889.583,168.934 891.249,162.601 893.5,156.5 Z"/></g>
<g><path style="opacity:1" fill="#5fb381" d="M 891.5,121.5 C 891.833,121.5 892.167,121.5 892.5,121.5C 894.801,133.074 895.135,144.741 893.5,156.5C 891.249,162.601 889.583,168.934 888.5,175.5C 885.358,180.436 882.191,185.436 879,190.5C 876.817,192.907 874.65,195.24 872.5,197.5C 872.822,195.278 872.155,193.444 870.5,192C 872.759,190.065 873.759,187.565 873.5,184.5C 876.167,184.5 878.833,184.5 881.5,184.5C 880.66,180.461 881.993,177.461 885.5,175.5C 886.847,167.838 889.014,160.505 892,153.5C 892.679,142.814 892.512,132.148 891.5,121.5 Z"/></g>
<g><path style="opacity:1" fill="#233041" d="M 1349.5,178.5 C 1321,179.167 1292.33,179.833 1263.5,180.5C 1261.73,181.27 1260.73,182.603 1260.5,184.5C 1262.38,189.448 1263.38,189.448 1263.5,184.5C 1295.51,184.773 1327.51,184.439 1359.5,183.5C 1359.5,185.167 1359.5,186.833 1359.5,188.5C 1327.5,189.089 1295.5,189.756 1263.5,190.5C 1262.27,193.3 1261.6,196.3 1261.5,199.5C 1261.52,202.421 1261.86,205.254 1262.5,208C 1260.75,210.374 1260.42,212.874 1261.5,215.5C 1294.19,216.369 1326.86,216.702 1359.5,216.5C 1357.03,217.317 1354.36,217.817 1351.5,218C 1320.84,218.5 1290.17,218.667 1259.5,218.5C 1259.5,205.167 1259.5,191.833 1259.5,178.5C 1289.5,178.5 1319.5,178.5 1349.5,178.5 Z"/></g>
<g><path style="opacity:1" fill="#52956b" d="M 795.5,220.5 C 802.167,220.5 808.833,220.5 815.5,220.5C 815.5,221.5 815.5,222.5 815.5,223.5C 808.535,223.601 801.868,222.601 795.5,220.5 Z"/></g>
<g><path style="opacity:1" fill="#386649" d="M 828.5,225.5 C 830.967,225.755 832.967,226.755 834.5,228.5C 832.033,228.245 830.033,227.245 828.5,225.5 Z"/></g>
<g><path style="opacity:1" fill="#5ca479" d="M 879.5,215.5 C 883.225,219.736 886.391,224.403 889,229.5C 889.867,234.637 891.201,239.637 893,244.5C 894.726,253.613 894.893,262.613 893.5,271.5C 893.666,264.159 893.5,256.826 893,249.5C 891.034,245.075 889.7,240.409 889,235.5C 885.46,230.416 882.46,225.083 880,219.5C 879.51,218.207 879.343,216.873 879.5,215.5 Z"/></g>
<g><path style="opacity:1" fill="#205234" d="M 893.5,276.5 C 893.568,280.57 892.568,284.237 890.5,287.5C 891.055,283.603 892.055,279.937 893.5,276.5 Z"/></g>
<g><path style="opacity:1" fill="#5db281" d="M 849.5,244.5 C 851.959,246.052 853.459,248.385 854,251.5C 854.041,261.835 854.041,272.168 854,282.5C 854.333,282.167 854.667,281.833 855,281.5C 857.057,287.938 858.724,287.938 860,281.5C 861.011,280.663 862.178,280.33 863.5,280.5C 863.5,282.833 863.5,285.167 863.5,287.5C 859.818,287.665 856.152,287.499 852.5,287C 853.167,286 853.833,285 854.5,284C 852.224,284.574 849.891,284.408 847.5,283.5C 847.288,286.558 845.955,289.058 843.5,291C 843.833,291.333 844.167,291.667 844.5,292C 839.36,293.14 836.193,296.306 835,301.5C 833.938,300.903 832.772,300.57 831.5,300.5C 825.187,301.798 818.854,302.964 812.5,304C 808.474,311.203 802.807,316.37 795.5,319.5C 801.139,313.526 806.805,307.526 812.5,301.5C 816.514,301.666 820.514,301.499 824.5,301C 827.025,300.576 829.025,299.41 830.5,297.5C 851.245,285.009 857.578,267.342 849.5,244.5 Z"/></g>
<g><path style="opacity:1" fill="#3e7a57" d="M 830.5,297.5 C 829.025,299.41 827.025,300.576 824.5,301C 820.514,301.499 816.514,301.666 812.5,301.5C 818.591,301.054 824.591,299.721 830.5,297.5 Z"/></g>
<g><path style="opacity:1" fill="#62b181" d="M 784.5,337.5 C 789.769,337.137 794.769,337.971 799.5,340C 810.161,340.5 820.828,340.667 831.5,340.5C 815.531,343.96 799.865,342.96 784.5,337.5 Z"/></g>
</svg>
