<?xml version="1.0" encoding="UTF-8"?>
<!DOCTYPE svg PUBLIC "-//W3C//DTD SVG 1.1//EN" "http://www.w3.org/Graphics/SVG/1.1/DTD/svg11.dtd">
<svg xmlns="http://www.w3.org/2000/svg" version="1.1" width="209px" height="46px" style="shape-rendering:geometricPrecision; text-rendering:geometricPrecision; image-rendering:optimizeQuality; fill-rule:evenodd; clip-rule:evenodd" xmlns:xlink="http://www.w3.org/1999/xlink">
<g><path style="opacity:1" fill="#fbfcfc" d="M -0.5,-0.5 C 69.1667,-0.5 138.833,-0.5 208.5,-0.5C 208.5,14.8333 208.5,30.1667 208.5,45.5C 138.833,45.5 69.1667,45.5 -0.5,45.5C -0.5,30.1667 -0.5,14.8333 -0.5,-0.5 Z"/></g>
<g><path style="opacity:1" fill="#272b3a" d="M 111.5,0.5 C 115.707,0.693818 117.04,2.69382 115.5,6.5C 109.701,7.57638 108.368,5.57638 111.5,0.5 Z"/></g>
<g><path style="opacity:1" fill="#a1a6b1" d="M 180.5,7.5 C 181.461,9.26465 181.795,11.2646 181.5,13.5C 177.5,13.5 173.5,13.5 169.5,13.5C 172.962,12.5184 176.629,12.185 180.5,12.5C 180.5,10.8333 180.5,9.16667 180.5,7.5 Z"/></g>
<g><path style="opacity:1" fill="#232a3b" d="M 7.5,7.5 C 11.7768,7.14194 15.1101,8.64194 17.5,12C 17.0696,13.4341 16.2362,14.6008 15,15.5C 11.9053,11.673 8.90531,11.673 6,15.5C 4.33168,21.4931 6.49834,23.9931 12.5,23C 13.3333,22.1667 14.1667,21.3333 15,20.5C 18.6186,23.7749 18.1186,26.2749 13.5,28C 3.50441,29.0023 -0.662253,24.5023 1,14.5C 2.42497,11.3937 4.59164,9.06036 7.5,7.5 Z"/></g>
<g><path style="opacity:1" fill="#283041" d="M 127.5,7.5 C 130.167,7.5 132.833,7.5 135.5,7.5C 135.5,9.16667 135.5,10.8333 135.5,12.5C 132.315,12.0196 129.481,12.6863 127,14.5C 126.501,19.1548 126.334,23.8215 126.5,28.5C 124.833,28.5 123.167,28.5 121.5,28.5C 121.334,23.1563 121.501,17.8229 122,12.5C 123.352,10.251 125.185,8.58437 127.5,7.5 Z"/></g>
<g><path style="opacity:1" fill="#283143" d="M 53.5,7.5 C 58.3473,6.84042 62.1806,8.50709 65,12.5C 66.339,17.7364 66.839,23.0698 66.5,28.5C 64.5,28.5 62.5,28.5 60.5,28.5C 60.6658,23.8215 60.4992,19.1548 60,14.5C 57.4082,13.0183 55.0749,13.3517 53,15.5C 52.501,19.8206 52.3343,24.1539 52.5,28.5C 50.8333,28.5 49.1667,28.5 47.5,28.5C 47.3342,23.8215 47.5008,19.1548 48,14.5C 48.9668,11.3794 50.8001,9.04602 53.5,7.5 Z"/></g>
<g><path style="opacity:1" fill="#222b3d" d="M 180.5,7.5 C 180.5,9.16667 180.5,10.8333 180.5,12.5C 176.629,12.185 172.962,12.5184 169.5,13.5C 172.795,15.1479 176.461,16.3146 180.5,17C 183.568,21.7242 182.568,25.3909 177.5,28C 173.179,28.499 168.846,28.6657 164.5,28.5C 164.5,26.8333 164.5,25.1667 164.5,23.5C 168.702,23.8168 172.702,23.4834 176.5,22.5C 177.043,22.44 177.376,22.1067 177.5,21.5C 174.215,20.6764 170.882,20.1764 167.5,20C 164.651,17.4406 163.817,14.2739 165,10.5C 165.903,9.29857 167.069,8.46524 168.5,8C 172.486,7.50115 176.486,7.33449 180.5,7.5 Z"/></g>
<g><path style="opacity:1" fill="#252e3e" d="M 77.5,7.5 C 82.9483,6.97498 87.1149,8.97498 90,13.5C 90.4993,18.4889 90.6659,23.4889 90.5,28.5C 88.5082,28.6715 86.8415,28.0049 85.5,26.5C 80.1274,29.6581 75.6274,28.6581 72,23.5C 69.0239,16.4622 70.8572,11.1289 77.5,7.5 Z"/></g>
<g><path style="opacity:1" fill="#f2f5f7" d="M 79.5,12.5 C 84.2881,13.123 86.1214,15.7897 85,20.5C 80.4238,24.6454 77.2571,23.6454 75.5,17.5C 76.1267,15.2127 77.46,13.546 79.5,12.5 Z"/></g>
<g><path style="opacity:1" fill="#64b786" d="M 100.5,9.5 C 107.634,6.04851 112.8,8.04851 116,15.5C 116.526,19.4337 115.693,23.1004 113.5,26.5C 118.218,33.6873 116.884,39.5206 109.5,44C 107.098,44.8141 104.765,44.6474 102.5,43.5C 103.04,42.2519 103.707,41.0852 104.5,40C 109.988,38.8573 111.655,35.6907 109.5,30.5C 105.757,29.2077 102.091,27.7077 98.5,26C 93.9915,19.7377 94.6581,14.2377 100.5,9.5 Z"/></g>
<g><path style="opacity:1" fill="#f4fcf8" d="M 108.5,13.5 C 111.662,17.8586 110.829,21.1919 106,23.5C 101.794,22.4068 100.461,19.7402 102,15.5C 103.789,13.771 105.956,13.1043 108.5,13.5 Z"/></g>
<g><path style="opacity:1" fill="#52c27f" d="M 108.5,13.5 C 108.038,12.1201 107.038,11.4534 105.5,11.5C 104.137,12.1984 102.971,12.1984 102,11.5C 101.692,12.3081 101.192,12.9747 100.5,13.5C 99.7084,12.3002 99.7084,10.9669 100.5,9.5C 105.95,7.70625 110.45,9.03958 114,13.5C 115.035,18.2383 114.202,22.5716 111.5,26.5C 113.051,28.3274 114.051,30.494 114.5,33C 114.742,35.3482 113.908,37.1815 112,38.5C 112.913,30.5517 109.413,26.2183 101.5,25.5C 110.258,26.0725 113.592,22.0725 111.5,13.5C 110.5,13.5 109.5,13.5 108.5,13.5 Z"/></g>
<g><path style="opacity:1" fill="#868d9a" d="M 176.5,22.5 C 172.702,23.4834 168.702,23.8168 164.5,23.5C 164.5,25.1667 164.5,26.8333 164.5,28.5C 163.539,26.7354 163.205,24.7354 163.5,22.5C 167.833,22.5 172.167,22.5 176.5,22.5 Z"/></g>
<g><path style="opacity:1" fill="#252c3e" d="M 146.5,7.5 C 158.505,8.50752 162.005,14.5075 157,25.5C 149.244,30.6031 143.578,28.9365 140,20.5C 138.973,14.554 141.14,10.2207 146.5,7.5 Z"/></g>
<g><path style="opacity:1" fill="#f1f5f7" d="M 147.5,12.5 C 152.813,12.6438 154.979,15.3105 154,20.5C 151.048,24.4815 148.048,24.4815 145,20.5C 144.388,17.3893 145.221,14.7226 147.5,12.5 Z"/></g>
<g><path style="opacity:1" fill="#252f3f" d="M 30.5,7.5 C 36.5614,7.27705 40.7281,9.94372 43,15.5C 43.499,19.8206 43.6657,24.1539 43.5,28.5C 41.2341,28.8588 39.4007,28.1922 38,26.5C 28.086,29.7002 23.086,26.0336 23,15.5C 24.3532,11.6499 26.8532,8.9832 30.5,7.5 Z"/></g>
<g><path style="opacity:1" fill="#eaeef0" d="M 31.5,12.5 C 37.4557,13.0866 39.2891,16.0866 37,21.5C 32.4011,24.4563 29.2345,23.2896 27.5,18C 28.0074,15.4547 29.3407,13.6214 31.5,12.5 Z"/></g>
<g><path style="opacity:1" fill="#283245" d="M 193.5,7.5 C 199.957,6.97491 204.457,9.64158 207,15.5C 207.499,19.8206 207.666,24.1539 207.5,28.5C 205.234,28.8588 203.401,28.1922 202,26.5C 195.116,29.5663 190.116,27.5663 187,20.5C 186.509,14.8157 188.675,10.4823 193.5,7.5 Z"/></g>
<g><path style="opacity:1" fill="#e9ecef" d="M 195.5,12.5 C 200.85,13.1837 202.684,16.1837 201,21.5C 196.401,24.4563 193.234,23.2896 191.5,18C 192.007,15.4547 193.341,13.6214 195.5,12.5 Z"/></g>
</svg>
